<svg width="24" height="24" viewBox="0 0 24 24" fill="none" xmlns="http://www.w3.org/2000/svg">
<path fill-rule="evenodd" clip-rule="evenodd" d="M6.57221 3.29224C7.23853 3.06514 7.9361 3.00012 8.55296 3.00012C10.0177 3.00012 11.122 3.62545 12.0005 4.25309C12.8859 3.62064 13.9829 3.00011 15.4649 3.00012C16.1237 3.00012 16.7977 3.09221 17.4508 3.30948C21.4402 4.60176 22.7253 8.89703 21.6114 12.4253L21.6067 12.4402L21.6016 12.4549C20.9852 14.2144 19.9772 15.8215 18.6548 17.1362L18.6491 17.1419L18.6433 17.1474C16.7965 18.9254 14.7227 20.5315 12.5148 21.8573L11.9935 22.1703L11.4758 21.8515C9.27266 20.4953 7.23794 18.9323 5.36874 17.1398L5.36103 17.1324L5.35348 17.1249C4.04238 15.8127 3.03447 14.2174 2.40889 12.4595L2.40366 12.4448L2.39889 12.43C1.26354 8.894 2.55506 4.60387 6.57221 3.29224ZM8.55296 5.00012C8.05963 5.00012 7.59908 5.05447 7.21316 5.18676L7.20573 5.18931L7.19826 5.19174C4.51011 6.06632 3.40905 9.01165 4.29844 11.8039C4.82404 13.2739 5.66728 14.6071 6.76086 15.7038C8.37537 17.2511 10.122 18.6184 12.0056 19.823C13.8831 18.6437 15.6551 17.2473 17.2503 15.7123C18.3496 14.6177 19.1916 13.2778 19.7088 11.8086C20.5859 9.00783 19.4776 6.06643 16.8313 5.21113L16.8224 5.20824L16.8224 5.2082C16.3987 5.06687 15.9403 5.00012 15.4649 5.00012C14.3741 5.00011 13.62 5.5251 12.6049 6.29624L11.999 6.75657L11.3938 6.29529C10.3949 5.53393 9.62429 5.00012 8.55296 5.00012Z" fill="black"/>
</svg>
