<svg width="23" height="21" viewBox="0 0 23 21" fill="none" xmlns="http://www.w3.org/2000/svg">
<path fill-rule="evenodd" clip-rule="evenodd" d="M12.0793 0C10.4225 0 9.0793 1.34314 9.0793 3V9.50445H3.94241L5.94531 7.50155C6.33583 7.11103 6.33583 6.47786 5.94531 6.08734C5.55478 5.69681 4.92162 5.69681 4.53109 6.08734L0.821092 9.79734C0.430567 10.1879 0.430567 10.821 0.821092 11.2116L4.53109 14.9216C4.92162 15.3121 5.55478 15.3121 5.94531 14.9216C6.33583 14.531 6.33583 13.8979 5.94531 13.5073L3.94241 11.5044H9.0793V18.0089C9.0793 19.6657 10.4225 21.0089 12.0793 21.0089H19.5112C21.168 21.0089 22.5112 19.6657 22.5112 18.0089V3C22.5112 1.34314 21.168 0 19.5112 0H12.0793ZM11.0793 11.5044V18.0089C11.0793 18.5612 11.527 19.0089 12.0793 19.0089H19.5112C20.0634 19.0089 20.5112 18.5612 20.5112 18.0089V3C20.5112 2.44772 20.0634 2 19.5112 2H12.0793C11.527 2 11.0793 2.44771 11.0793 3V9.50445H15.7952C16.3475 9.50445 16.7952 9.95216 16.7952 10.5044C16.7952 11.0567 16.3475 11.5044 15.7952 11.5044H11.0793Z" fill="black"/>
</svg>
