<svg width="883" height="150" viewBox="0 0 883 150" fill="none" xmlns="http://www.w3.org/2000/svg">
<g clip-path="url(#clip0_7_677)">
<path d="M39.5305 142.568C42.5139 145.295 40.3966 150 36.1621 150H9.50368C7.0191 150.03 4.62322 149.129 2.84158 147.493C1.05993 145.857 0.0380195 143.62 0 141.273V116.909C0 113 5.12477 111.068 8.13226 113.818L39.5305 142.568Z" fill="#0A1551"/>
<path d="M81.1297 144.455C79.2603 142.701 77.7765 140.616 76.7638 138.318C75.7514 136.021 75.23 133.557 75.23 131.068C75.23 128.58 75.7514 126.116 76.7638 123.818C77.7765 121.521 79.2603 119.435 81.1297 117.682L109.569 91.0001C113.363 87.4442 118.491 85.4492 123.836 85.4492C129.181 85.4492 134.309 87.4442 138.104 91.0001C139.973 92.7535 141.457 94.839 142.47 97.1365C143.482 99.4338 144.003 101.898 144.003 104.386C144.003 106.875 143.482 109.339 142.47 111.636C141.457 113.934 139.973 116.019 138.104 117.773L109.665 144.455C105.87 148.01 100.742 150.006 95.3973 150.006C90.0526 150.006 84.9242 148.01 81.1297 144.455Z" fill="#FFB629"/>
<path d="M6.01497 77.3863C4.14542 75.6329 2.66164 73.5474 1.64908 71.2501C0.636525 68.9526 0.115234 66.4885 0.115234 63.9999C0.115234 61.5115 0.636525 59.0474 1.64908 56.7499C2.66164 54.4524 4.14542 52.367 6.01497 50.6135L53.8703 5.6818C57.6646 2.12607 62.7929 0.130859 68.1379 0.130859C73.4825 0.130859 78.6109 2.12607 82.4054 5.6818C84.2749 7.43518 85.7586 9.52068 86.7711 11.8181C87.7838 14.1156 88.3051 16.5796 88.3051 19.0682C88.3051 21.5568 87.7838 24.0208 86.7711 26.3183C85.7586 28.6156 84.2749 30.701 82.4054 32.4545L34.5261 77.3863C30.7326 80.9351 25.6095 82.926 20.2705 82.926C14.9315 82.926 9.8084 80.9351 6.01497 77.3863Z" fill="#0099FF"/>
<path d="M45.1366 109.432C43.2669 107.678 41.7831 105.593 40.7706 103.295C39.758 100.998 39.2368 98.5337 39.2368 96.0453C39.2368 93.5566 39.758 91.0925 40.7706 88.795C41.7831 86.4978 43.2669 84.4121 45.1366 82.6589L109.786 21.977C113.58 18.4212 118.708 16.426 124.053 16.426C129.398 16.426 134.526 18.4212 138.321 21.977C140.19 23.7303 141.674 25.8159 142.687 28.1132C143.699 30.4107 144.22 32.8748 144.22 35.3634C144.22 37.8518 143.699 40.3159 142.687 42.6134C141.674 44.9109 140.19 46.9964 138.321 48.7498L73.6717 109.432C69.8772 112.987 64.7488 114.983 59.4041 114.983C54.0592 114.983 48.9308 112.987 45.1366 109.432Z" fill="#FF6100"/>
<path d="M208.268 122V52.1818H235.813C241.109 52.1818 245.62 53.1932 249.347 55.2159C253.075 57.2159 255.916 60 257.87 63.5682C259.847 67.1136 260.836 71.2045 260.836 75.8409C260.836 80.4773 259.836 84.5682 257.836 88.1136C255.836 91.6591 252.938 94.4205 249.143 96.3977C245.37 98.375 240.802 99.3636 235.438 99.3636H217.882V87.5341H233.052C235.893 87.5341 238.234 87.0455 240.075 86.0682C241.938 85.0682 243.325 83.6932 244.234 81.9432C245.166 80.1705 245.632 78.1364 245.632 75.8409C245.632 73.5227 245.166 71.5 244.234 69.7727C243.325 68.0227 241.938 66.6705 240.075 65.7159C238.211 64.7386 235.847 64.25 232.984 64.25H223.029V122H208.268ZM283.677 122.989C280.336 122.989 277.359 122.409 274.745 121.25C272.132 120.068 270.063 118.33 268.541 116.034C267.041 113.716 266.291 110.83 266.291 107.375C266.291 104.466 266.825 102.023 267.893 100.045C268.961 98.0682 270.416 96.4773 272.257 95.2727C274.097 94.0682 276.188 93.1591 278.529 92.5455C280.893 91.9318 283.37 91.5 285.961 91.25C289.007 90.9318 291.461 90.6364 293.325 90.3636C295.188 90.0682 296.541 89.6364 297.382 89.0682C298.222 88.5 298.643 87.6591 298.643 86.5455V86.3409C298.643 84.1818 297.961 82.5114 296.597 81.3295C295.257 80.1477 293.347 79.5568 290.87 79.5568C288.257 79.5568 286.177 80.1364 284.632 81.2955C283.086 82.4318 282.063 83.8636 281.563 85.5909L268.132 84.5C268.813 81.3182 270.154 78.5682 272.154 76.25C274.154 73.9091 276.734 72.1136 279.893 70.8636C283.075 69.5909 286.757 68.9545 290.938 68.9545C293.847 68.9545 296.632 69.2955 299.291 69.9773C301.972 70.6591 304.347 71.7159 306.416 73.1477C308.507 74.5795 310.154 76.4205 311.359 78.6705C312.563 80.8977 313.166 83.5682 313.166 86.6818V122H299.393V114.739H298.984C298.143 116.375 297.018 117.818 295.609 119.068C294.2 120.295 292.507 121.261 290.529 121.966C288.552 122.648 286.268 122.989 283.677 122.989ZM287.836 112.966C289.972 112.966 291.859 112.545 293.495 111.705C295.132 110.841 296.416 109.682 297.347 108.227C298.279 106.773 298.745 105.125 298.745 103.284V97.7273C298.291 98.0227 297.666 98.2955 296.87 98.5455C296.097 98.7727 295.222 98.9886 294.245 99.1932C293.268 99.375 292.291 99.5455 291.313 99.7045C290.336 99.8409 289.45 99.9659 288.654 100.08C286.95 100.33 285.461 100.727 284.188 101.273C282.916 101.818 281.927 102.557 281.222 103.489C280.518 104.398 280.166 105.534 280.166 106.898C280.166 108.875 280.882 110.386 282.313 111.432C283.768 112.455 285.609 112.966 287.836 112.966ZM324.433 141.636V69.6364H338.751V78.4318H339.399C340.035 77.0227 340.955 75.5909 342.16 74.1364C343.387 72.6591 344.978 71.4318 346.933 70.4545C348.91 69.4545 351.364 68.9545 354.296 68.9545C358.114 68.9545 361.637 69.9545 364.864 71.9545C368.092 73.9318 370.671 76.9205 372.603 80.9205C374.535 84.8977 375.501 89.8864 375.501 95.8864C375.501 101.727 374.558 106.659 372.671 110.682C370.808 114.682 368.262 117.716 365.035 119.784C361.83 121.83 358.239 122.852 354.262 122.852C351.444 122.852 349.046 122.386 347.069 121.455C345.114 120.523 343.512 119.352 342.262 117.943C341.012 116.511 340.058 115.068 339.399 113.614H338.955V141.636H324.433ZM338.649 95.8182C338.649 98.9318 339.08 101.648 339.944 103.966C340.808 106.284 342.058 108.091 343.694 109.386C345.33 110.659 347.319 111.295 349.66 111.295C352.024 111.295 354.024 110.648 355.66 109.352C357.296 108.034 358.535 106.216 359.376 103.898C360.239 101.557 360.671 98.8636 360.671 95.8182C360.671 92.7955 360.251 90.1364 359.41 87.8409C358.569 85.5455 357.33 83.75 355.694 82.4545C354.058 81.1591 352.046 80.5114 349.66 80.5114C347.296 80.5114 345.296 81.1364 343.66 82.3864C342.046 83.6364 340.808 85.4091 339.944 87.7045C339.08 90 338.649 92.7045 338.649 95.8182ZM409.046 123.023C403.66 123.023 399.024 121.932 395.137 119.75C391.274 117.545 388.296 114.432 386.205 110.409C384.114 106.364 383.069 101.58 383.069 96.0568C383.069 90.6705 384.114 85.9432 386.205 81.875C388.296 77.8068 391.239 74.6364 395.035 72.3636C398.853 70.0909 403.33 68.9545 408.467 68.9545C411.921 68.9545 415.137 69.5114 418.114 70.625C421.114 71.7159 423.728 73.3636 425.955 75.5682C428.205 77.7727 429.955 80.5455 431.205 83.8864C432.455 87.2045 433.08 91.0909 433.08 95.5455V99.5341H388.864V90.5341H419.41C419.41 88.4432 418.955 86.5909 418.046 84.9773C417.137 83.3636 415.876 82.1023 414.262 81.1932C412.671 80.2614 410.819 79.7955 408.705 79.7955C406.501 79.7955 404.546 80.3068 402.842 81.3295C401.16 82.3295 399.842 83.6818 398.887 85.3864C397.933 87.0682 397.444 88.9432 397.421 91.0114V99.5682C397.421 102.159 397.899 104.398 398.853 106.284C399.83 108.17 401.205 109.625 402.978 110.648C404.751 111.67 406.853 112.182 409.285 112.182C410.899 112.182 412.376 111.955 413.717 111.5C415.058 111.045 416.205 110.364 417.16 109.455C418.114 108.545 418.842 107.432 419.342 106.114L432.774 107C432.092 110.227 430.694 113.045 428.58 115.455C426.489 117.841 423.785 119.705 420.467 121.045C417.171 122.364 413.364 123.023 409.046 123.023ZM457.08 52.1818V122H442.558V52.1818H457.08ZM492.578 123.023C487.191 123.023 482.555 121.932 478.668 119.75C474.805 117.545 471.828 114.432 469.737 110.409C467.646 106.364 466.6 101.58 466.6 96.0568C466.6 90.6705 467.646 85.9432 469.737 81.875C471.828 77.8068 474.771 74.6364 478.566 72.3636C482.384 70.0909 486.862 68.9545 491.998 68.9545C495.453 68.9545 498.668 69.5114 501.646 70.625C504.646 71.7159 507.259 73.3636 509.487 75.5682C511.737 77.7727 513.487 80.5455 514.737 83.8864C515.987 87.2045 516.612 91.0909 516.612 95.5455V99.5341H472.396V90.5341H502.941C502.941 88.4432 502.487 86.5909 501.578 84.9773C500.668 83.3636 499.407 82.1023 497.793 81.1932C496.203 80.2614 494.35 79.7955 492.237 79.7955C490.032 79.7955 488.078 80.3068 486.373 81.3295C484.691 82.3295 483.373 83.6818 482.418 85.3864C481.464 87.0682 480.975 88.9432 480.953 91.0114V99.5682C480.953 102.159 481.43 104.398 482.384 106.284C483.362 108.17 484.737 109.625 486.509 110.648C488.282 111.67 490.384 112.182 492.816 112.182C494.43 112.182 495.907 111.955 497.248 111.5C498.589 111.045 499.737 110.364 500.691 109.455C501.646 108.545 502.373 107.432 502.873 106.114L516.305 107C515.623 110.227 514.225 113.045 512.112 115.455C510.021 117.841 507.316 119.705 503.998 121.045C500.703 122.364 496.896 123.023 492.578 123.023ZM526.089 122V69.6364H540.168V78.7727H540.714C541.668 75.5227 543.271 73.0682 545.521 71.4091C547.771 69.7273 550.362 68.8864 553.293 68.8864C554.021 68.8864 554.805 68.9318 555.646 69.0227C556.487 69.1136 557.225 69.2386 557.862 69.3977V82.2841C557.18 82.0795 556.237 81.8977 555.032 81.7386C553.828 81.5795 552.725 81.5 551.725 81.5C549.589 81.5 547.68 81.9659 545.998 82.8977C544.339 83.8068 543.021 85.0795 542.043 86.7159C541.089 88.3523 540.612 90.2386 540.612 92.375V122H526.089ZM565.37 122V69.6364H579.893V122H565.37ZM572.666 62.8864C570.507 62.8864 568.654 62.1705 567.109 60.7386C565.586 59.2841 564.825 57.5455 564.825 55.5227C564.825 53.5227 565.586 51.8068 567.109 50.375C568.654 48.9205 570.507 48.1932 572.666 48.1932C574.825 48.1932 576.666 48.9205 578.188 50.375C579.734 51.8068 580.507 53.5227 580.507 55.5227C580.507 57.5455 579.734 59.2841 578.188 60.7386C576.666 62.1705 574.825 62.8864 572.666 62.8864ZM606.458 122.989C603.117 122.989 600.14 122.409 597.526 121.25C594.913 120.068 592.845 118.33 591.322 116.034C589.822 113.716 589.072 110.83 589.072 107.375C589.072 104.466 589.606 102.023 590.674 100.045C591.742 98.0682 593.197 96.4773 595.038 95.2727C596.879 94.0682 598.97 93.1591 601.311 92.5455C603.674 91.9318 606.151 91.5 608.742 91.25C611.788 90.9318 614.242 90.6364 616.106 90.3636C617.97 90.0682 619.322 89.6364 620.163 89.0682C621.004 88.5 621.424 87.6591 621.424 86.5455V86.3409C621.424 84.1818 620.742 82.5114 619.379 81.3295C618.038 80.1477 616.129 79.5568 613.651 79.5568C611.038 79.5568 608.958 80.1364 607.413 81.2955C605.867 82.4318 604.845 83.8636 604.345 85.5909L590.913 84.5C591.595 81.3182 592.936 78.5682 594.936 76.25C596.936 73.9091 599.515 72.1136 602.674 70.8636C605.856 69.5909 609.538 68.9545 613.72 68.9545C616.629 68.9545 619.413 69.2955 622.072 69.9773C624.754 70.6591 627.129 71.7159 629.197 73.1477C631.288 74.5795 632.936 76.4205 634.14 78.6705C635.345 80.8977 635.947 83.5682 635.947 86.6818V122H622.174V114.739H621.765C620.924 116.375 619.799 117.818 618.39 119.068C616.981 120.295 615.288 121.261 613.311 121.966C611.333 122.648 609.049 122.989 606.458 122.989ZM610.617 112.966C612.754 112.966 614.64 112.545 616.276 111.705C617.913 110.841 619.197 109.682 620.129 108.227C621.061 106.773 621.526 105.125 621.526 103.284V97.7273C621.072 98.0227 620.447 98.2955 619.651 98.5455C618.879 98.7727 618.004 98.9886 617.026 99.1932C616.049 99.375 615.072 99.5455 614.095 99.7045C613.117 99.8409 612.231 99.9659 611.436 100.08C609.731 100.33 608.242 100.727 606.97 101.273C605.697 101.818 604.708 102.557 604.004 103.489C603.299 104.398 602.947 105.534 602.947 106.898C602.947 108.875 603.663 110.386 605.095 111.432C606.549 112.455 608.39 112.966 610.617 112.966ZM669.705 52.1818H687.91L707.137 99.0909H707.955L727.183 52.1818H745.387V122H731.069V76.5568H730.489L712.421 121.659H702.671L684.603 76.3864H684.024V122H669.705V52.1818ZM769.686 62.8864L776.913 47.375H790.345L779.947 62.8864H769.686ZM848.563 84.5682L835.268 85.3864C835.041 84.25 834.552 83.2273 833.802 82.3182C833.052 81.3864 832.063 80.6477 830.836 80.1023C829.632 79.5341 828.188 79.25 826.507 79.25C824.257 79.25 822.359 79.7273 820.813 80.6818C819.268 81.6136 818.495 82.8636 818.495 84.4318C818.495 85.6818 818.995 86.7386 819.995 87.6023C820.995 88.4659 822.711 89.1591 825.143 89.6818L834.62 91.5909C839.711 92.6364 843.507 94.3182 846.007 96.6364C848.507 98.9545 849.757 102 849.757 105.773C849.757 109.205 848.745 112.216 846.722 114.807C844.722 117.398 841.972 119.42 838.472 120.875C834.995 122.307 830.984 123.023 826.438 123.023C819.507 123.023 813.984 121.58 809.87 118.693C805.779 115.784 803.382 111.83 802.677 106.83L816.961 106.08C817.393 108.193 818.438 109.807 820.097 110.92C821.757 112.011 823.882 112.557 826.472 112.557C829.018 112.557 831.063 112.068 832.609 111.091C834.177 110.091 834.972 108.807 834.995 107.239C834.972 105.92 834.416 104.841 833.325 104C832.234 103.136 830.552 102.477 828.279 102.023L819.211 100.216C814.097 99.1932 810.291 97.4205 807.791 94.8977C805.313 92.375 804.075 89.1591 804.075 85.25C804.075 81.8864 804.984 78.9886 806.802 76.5568C808.643 74.125 811.222 72.25 814.541 70.9318C817.882 69.6136 821.791 68.9545 826.268 68.9545C832.882 68.9545 838.086 70.3523 841.882 73.1477C845.7 75.9432 847.927 79.75 848.563 84.5682Z" fill="black"/>
</g>
<defs>
<clipPath id="clip0_7_677">
<rect width="883" height="150" fill="white"/>
</clipPath>
</defs>
</svg>
